<svg id="instagram" xmlns="http://www.w3.org/2000/svg" width="36.484" height="35.858" viewBox="0 0 36.484 35.858">
  <path id="Path_34" data-name="Path 34" d="M25.615,0H10.869A10.789,10.789,0,0,0,0,10.682V25.176A10.789,10.789,0,0,0,10.869,35.858H25.615A10.789,10.789,0,0,0,36.484,25.176V10.682A10.789,10.789,0,0,0,25.615,0Zm7.2,25.176a7.138,7.138,0,0,1-7.2,7.075H10.869a7.138,7.138,0,0,1-7.2-7.075V10.682a7.138,7.138,0,0,1,7.2-7.075H25.615a7.138,7.138,0,0,1,7.2,7.075V25.176Z" transform="translate(0 0)" fill="#fff"/>
  <path id="Path_35" data-name="Path 35" d="M141.752,133a8.547,8.547,0,1,0,8.752,8.544A8.66,8.66,0,0,0,141.752,133Zm0,13.765a5.222,5.222,0,1,1,5.348-5.221A5.285,5.285,0,0,1,141.752,146.765Z" transform="translate(-123.509 -123.615)" fill="#fff"/>
  <ellipse id="Ellipse_3" data-name="Ellipse 3" cx="2.714" cy="2.682" rx="2.714" ry="2.682" transform="translate(24.714 6.312)" fill="#fff"/>
</svg>
