<svg xmlns="http://www.w3.org/2000/svg" width="45.474" height="36" viewBox="0 0 45.474 36">
  <path id="medium" d="M41.845,6.731,45.474,3.26V2.5H32.9L23.946,24.8,13.754,2.5H.574v.76l4.239,5.1a1.778,1.778,0,0,1,.574,1.484V29.9a2.286,2.286,0,0,1-.612,1.989L0,37.674v.75H13.538v-.76L8.763,31.887A2.357,2.357,0,0,1,8.106,29.9V12.553l11.884,25.88h1.381l10.218-25.88V33.17c0,.544,0,.656-.356,1.012l-3.676,3.556V38.5H45.39v-.76l-3.543-3.469a1.054,1.054,0,0,1-.405-1.012V7.743a1.05,1.05,0,0,1,.4-1.012Z" transform="translate(0 -2.5)" fill="#fff"/>
</svg>
